#!OML:ASF X:\für Bonn\!DataBase\2005_08_12_Daniel\c3d\Daniel.ASF
:FULLY-SPECIFIED
:DEGREES
376
root 16.2094 1.33485 1.10192 -776.073 -86.6289 -424.024
lowerback 31.9669 -2.96007 1.41231
upperback 8.12195 -4.26778 -0.494895
thorax -8.3484 -2.47154 0.301566
lowerneck -5.32541 3.28493 -6.92023
upperneck 2.05525 4.77012 -0.180939
head 1.38333 2.27685 1.24009
rclavicle 7.15625e-015 -2.19906e-014
rhumerus -36.305 2.66072 -85.0556
rradius 17.8454
rwrist 31.7039
rhand -21.01 -348.82
rfingers 7.12502
rthumb 5.36471 -378.732
lclavicle 7.15625e-015 -2.19906e-014
lhumerus -758.597 21.0292 -649.821
lradius 23.2067
lwrist -49.6896
lhand -11.161 353.092
lfingers 7.12502
lthumb 14.8654 382.539
rfemur 367.612 -7.46589 372.478
rtibia 55.6935
rfoot 36.4048 -14.4519
rtoes 15.6361
lfemur 11.1638 -10.5339 -17.0351
ltibia 44.4574
lfoot 30.62 8.78319
ltoes 0.448028
377
root 16.1895 1.33852 1.10066 -775.015 -86.6155 -424.973
lowerback 31.7548 -2.96299 1.41549
upperback 8.1032 -4.2658 -0.478248
thorax -8.2701 -2.46819 0.306627
lowerneck -5.62111 3.27513 -6.87296
upperneck 2.11955 4.77845 -0.189017
head 1.45688 2.27793 1.23883
rclavicle -1.59028e-015 7.95139e-015
rhumerus -36.3958 1.41014 -84.4026
rradius 17.1799
rwrist 33.6447
rhand -20.999 -348.588
rfingers 7.12502
rthumb 5.37535 -378.499
lclavicle -1.59028e-015 7.95139e-015
lhumerus -758.79 21.0452 -649.911
lradius 23.0412
lwrist -50.1721
lhand -10.906 353.156
lfingers 7.12502
lthumb 15.1111 382.584
rfemur 368.477 -6.79483 372.896
rtibia 53.6632
rfoot 35.7636 -14.2036
rtoes 15.2043
lfemur 11.8324 -11.315 -17.6357
ltibia 43.2637
lfoot 30.2486 9.19234
ltoes 0.10516
378
root 16.1711 1.34134 1.09929 -773.673 -86.5975 -426.218
lowerback 31.5469 -2.97832 1.44714
upperback 8.09667 -4.27235 -0.463059
thorax -8.18155 -2.47003 0.296652
lowerneck -5.87597 3.26746 -6.8463
upperneck 2.15252 4.78656 -0.210371
head 1.5132 2.27913 1.23517
rclavicle 6.20208e-014 -7.25067e-014
rhumerus -36.5015 0.189874 -83.7244
rradius 16.5618
rwrist 35.5097
rhand -21.0056 -348.252
rfingers 7.12502
rthumb 5.36892 -378.164
lclavicle 6.20208e-014 -7.25067e-014
lhumerus -758.984 21.0246 -649.961
lradius 22.9171
lwrist -50.5259
lhand -10.6572 353.197
lfingers 7.12502
lthumb 15.3507 382.607
rfemur 369.443 -6.03816 373.367
rtibia 51.4822
rfoot 34.9948 -14.2072
rtoes 14.8868
lfemur 12.4804 -12.1578 -18.2697
ltibia 42.1566
lfoot 29.7539 9.5092
ltoes 0.0757402
379
root 16.1545 1.34487 1.09737 -772.884 -86.575 -426.9
lowerback 31.3419 -2.9784 1.42479
upperback 8.08212 -4.27542 -0.442019
thorax -8.09947 -2.46939 0.323309
lowerneck -6.09182 3.27193 -6.79951
upperneck 2.1475 4.8054 -0.255768
head 1.55096 2.28617 1.21886
rclavicle 3.33958e-014 -2.9445e-014
rhumerus -36.6422 -0.992168 -83.0311
rradius 16.0004
rwrist 37.3651
rhand -21.0298 -347.975
rfingers 7.12502
rthumb 5.34558 -377.888
lclavicle 3.33958e-014 -2.9445e-014
lhumerus -759.178 21.084 -650.042
lradius 22.7556
lwrist -50.9123
lhand -10.4756 353.279
lfingers 7.12502
lthumb 15.5256 382.675
rfemur 370.479 -5.18141 373.847
rtibia 49.1642
rfoot 34.0817 -14.5488
rtoes 14.699
lfemur 13.1051 -12.9978 -18.9443
ltibia 41.1141
lfoot 29.0675 9.78029
ltoes 0.265475
380
root 16.1393 1.34819 1.09575 -772.128 -86.5552 -427.552
lowerback 31.1348 -2.9763 1.43008
upperback 8.07138 -4.26776 -0.435984
thorax -8.01464 -2.4636 0.312912
lowerneck -6.22397 3.26611 -6.75453
upperneck 2.10694 4.80271 -0.267199
head 1.56246 2.28507 1.21022
rclavicle 5.725e-014 2.75814e-015
rhumerus -36.7898 -2.25273 -82.3202
rradius 15.4573
rwrist 39.1723
rhand -21.0959 -347.677
rfingers 7.12502
rthumb 5.28173 -377.591
lclavicle 5.725e-014 2.75814e-015
lhumerus -759.348 21.0277 -650.089
lradius 22.605
lwrist -51.1635
lhand -10.3646 353.263
lfingers 7.12502
lthumb 15.6325 382.652
rfemur 371.595 -4.23434 374.388
rtibia 46.7287
rfoot 33.0325 -15.2731
rtoes 15.4007
lfemur 13.7045 -13.8426 -19.6209
ltibia 40.1575
lfoot 28.1675 10.0285
ltoes 0.627217
381
root 16.1248 1.35095 1.0945 -771.528 -86.5058 -428.037
lowerback 30.9313 -2.97513 1.40443
upperback 8.05332 -4.27019 -0.423125
thorax -7.93734 -2.46225 0.332136
lowerneck -6.35644 3.26527 -6.75138
upperneck 2.07343 4.80942 -0.277422
head 1.57511 2.28784 1.20951
rclavicle 1.90833e-014 5.11871e-015
rhumerus -37.0035 -3.13694 -81.7567
rradius 15.0435
rwrist 40.6008
rhand -21.132 -347.437
rfingers 7.12502
rthumb 5.24691 -377.352
lclavicle 1.90833e-014 5.11871e-015
lhumerus -759.551 20.9466 -650.095
lradius 22.5176
lwrist -51.372
lhand -10.2455 353.303
lfingers 7.12502
lthumb 15.7472 382.682
rfemur 372.751 -3.25165 374.921
rtibia 44.222
rfoot 31.934 -16.4133
rtoes 17.2477
lfemur 14.2581 -14.7335 -20.3518
ltibia 39.2829
lfoot 27.1204 10.2834
ltoes 0.91162
382
root 16.1094 1.35336 1.09391 -771.293 -86.4742 -428.175
lowerback 30.7488 -2.97253 1.37657
upperback 8.04088 -4.27327 -0.423538
thorax -7.86419 -2.46164 0.338922
lowerneck -6.45203 3.26993 -6.70583
upperneck 2.02372 4.81764 -0.307859
head 1.57717 2.29188 1.1938
rclavicle -1.59028e-015 9.86469e-015
rhumerus -37.19 -4.09828 -81.1549
rradius 14.603
rwrist 42.1624
rhand -21.1897 -347.233
rfingers 7.12502
rthumb 5.19115 -377.15
lclavicle -1.59028e-015 9.86469e-015
lhumerus -759.748 21.0383 -650.202
lradius 22.3835
lwrist -51.728
lhand -10.1971 353.344
lfingers 7.12502
lthumb 15.7938 382.72
rfemur 373.968 -2.1637 375.481
rtibia 41.6792
rfoot 30.782 -17.8941
rtoes 19.7055
lfemur 14.7826 -15.5707 -21.0649
ltibia 38.4974
lfoot 26.0269 10.5018
ltoes 1.17619
383
root 16.0953 1.35579 1.09312 -770.989 -86.4313 -428.368
lowerback 30.5417 -2.96857 1.34741
upperback 8.03798 -4.27518 -0.420622
thorax -7.76805 -2.46083 0.347906
lowerneck -6.53979 3.27553 -6.67776
upperneck 1.9423 4.826 -0.320858
head 1.56683 2.29707 1.18582
rclavicle 1.13705e-013 -2.02885e-013
rhumerus -37.3988 -4.88067 -80.624
rradius 14.2572
rwrist 43.5179
rhand -21.1924 -347.064
rfingers 7.12502
rthumb 5.18856 -376.981
lclavicle 1.13705e-013 -2.02885e-013
lhumerus -759.91 21.1288 -650.3
lradius 22.2471
lwrist -52.0213
lhand -10.178 353.307
lfingers 7.12502
lthumb 15.8122 382.681
rfemur 375.189 -1.01544 376.087
rtibia 39.1403
rfoot 29.5885 -19.526
rtoes 21.6465
lfemur 15.2679 -16.3961 -21.7576
ltibia 37.7688
lfoot 24.9415 10.7386
ltoes 1.43924
384
root 16.0811 1.3579 1.09328 -771.052 -86.3866 -428.208
lowerback 30.3665 -2.96049 1.3247
upperback 8.01666 -4.26976 -0.444605
thorax -7.71031 -2.4552 0.323049
lowerneck -6.54646 3.27627 -6.59896
upperneck 1.86407 4.81928 -0.342689
head 1.5449 2.29577 1.16383
rclavicle -3.33958e-014 2.94947e-014
rhumerus -37.6509 -5.83317 -80.0095
rradius 13.9006
rwrist 45.0492
rhand -21.2024 -346.829
rfingers 7.12502
rthumb 5.17894 -376.746
lclavicle -3.33958e-014 2.94947e-014
lhumerus -760.093 21.0853 -650.387
lradius 22.1261
lwrist -52.2963
lhand -10.1609 353.301
lfingers 7.12502
lthumb 15.8287 382.674
rfemur 376.445 0.163855 376.686
rtibia 36.6303
rfoot 28.3861 -21.2647
rtoes 23.2548
lfemur 15.7333 -17.1254 -22.4168
ltibia 37.0752
lfoot 24.0264 10.9067
ltoes 1.83494
385
root 16.0701 1.36032 1.09315 -771.123 -86.3322 -428.033
lowerback 30.1953 -2.94728 1.2621
upperback 7.9955 -4.26768 -0.436295
thorax -7.64895 -2.45146 0.358493
lowerneck -6.59511 3.28456 -6.59829
upperneck 1.78481 4.83014 -0.346522
head 1.52752 2.3023 1.1625
rclavicle -1.25632e-013 1.02051e-013
rhumerus -37.8944 -6.86254 -79.2621
rradius 13.534
rwrist 46.7751
rhand -21.2563 -346.594
rfingers 7.12502
rthumb 5.12689 -376.512
lclavicle -1.25632e-013 1.02051e-013
lhumerus -760.305 21.1348 -650.45
lradius 22.044
lwrist -52.4909
lhand -10.1238 353.32
lfingers 7.12502
lthumb 15.8645 382.69
rfemur 377.69 1.33359 377.297
rtibia 34.1724
rfoot 27.2425 -22.893
rtoes 24.2886
lfemur 16.1717 -17.828 -23.0429
ltibia 36.3967
lfoot 23.1744 11.1148
ltoes 2.22879
386
root 16.0614 1.36382 1.09416 -771.349 -86.2612 -427.701
lowerback 30.0049 -2.93847 1.20498
upperback 7.98533 -4.27174 -0.447394
thorax -7.56782 -2.45108 0.369801
lowerneck -6.67731 3.2846 -6.58246
upperneck 1.73194 4.8324 -0.347305
head 1.52518 2.30407 1.16078
rclavicle 1.74931e-014 9.86469e-015
rhumerus -38.1356 -7.76612 -78.5879
rradius 13.2007
rwrist 48.3312
rhand -21.2875 -346.357
rfingers 7.12502
rthumb 5.09678 -376.276
lclavicle 1.74931e-014 9.86469e-015
lhumerus -760.47 21.2762 -650.585
lradius 21.8942
lwrist -52.8315
lhand -10.0829 353.288
lfingers 7.12502
lthumb 15.9038 382.655
rfemur 378.941 2.5417 377.925
rtibia 31.7901
rfoot 26.1148 -24.4468
rtoes 24.7663
lfemur 16.6206 -18.5168 -23.6826
ltibia 35.7226
lfoot 22.3958 11.371
ltoes 2.37361
